<svg xmlns="http://www.w3.org/2000/svg" version="1.1" xmlns:xlink="http://www.w3.org/1999/xlink" xmlns:svgjs="http://svgjs.dev/svgjs" width="1500" height="742" viewBox="0 0 1500 742"><g transform="matrix(1,0,0,1,0.4564060150377145,-1.0498510638296352)"><svg viewBox="0 0 285 141" data-background-color="#ffffff" preserveAspectRatio="xMidYMid meet" height="742" width="1500" xmlns="http://www.w3.org/2000/svg" xmlns:xlink="http://www.w3.org/1999/xlink"><g id="tight-bounds" transform="matrix(1,0,0,1,-0.08671714285716803,0.19949999999997203)"><svg viewBox="0 0 285.17343428571434 140.60052000000002" height="140.60052000000002" width="285.17343428571434"><g><svg viewBox="0 0 285.17343428571434 140.60052000000002" height="140.60052000000002" width="285.17343428571434"><g><svg viewBox="0 0 285.17343428571434 140.60052000000002" height="140.60052000000002" width="285.17343428571434"><g><path d="M0 140.601v-140.601h285.173v140.601z" fill="#259890" stroke="transparent" stroke-width="0" rx="0%" data-fill-palette-color="tertiary"></path><path d="M3.283 137.317v-134.034h278.607v134.034z" fill="#ffffff" stroke="transparent" stroke-width="0" rx="0%" data-fill-palette-color="quaternary"></path><path d="M9.85 130.751v-120.901h265.474v120.901z" fill="#259890" stroke="transparent" stroke-width="0" data-fill-palette-color="tertiary"></path></g><g transform="matrix(1,0,0,1,19.699740000000013,19.69974)" id="textblocktransform"><svg viewBox="0 0 245.77395428571432 101.20104" height="101.20104" width="245.77395428571432" id="textblock"><g><svg viewBox="0 0 245.77395428571432 101.20104" height="101.20104" width="245.77395428571432"><g transform="matrix(1,0,0,1,0,0)"><svg width="245.77395428571432" viewBox="1.05 -35 85 35" height="101.20104" data-palette-color="#ffffff"><path d="M23.4 0L26.35 0 14.95-35 12.3-35 1.05 0 4.05 0 8-12.25 19.35-12.25 23.4 0ZM18.6-15L8.75-15 13.6-30.7 18.6-15ZM54.9 0L54.9-35 52.1-35 52.1-5.15 33.1-35 30.25-35 30.25 0 33.1 0 33.1-29.85 52.1 0 54.9 0ZM72.55-4.3L62.05-35 59.2-35 59.2 0 62.05 0 62.05-26.75 71.05 0 74.09 0 83.25-26.75 83.25 0 86.05 0 86.05-35 83.25-35 72.55-4.3Z" opacity="1" transform="matrix(1,0,0,1,0,0)" fill="#ffffff" class="wordmark-text-0" data-fill-palette-color="quaternary" id="text-0"></path></svg></g></svg></g></svg></g></svg></g><g></g></svg></g><defs></defs></svg><rect width="285.17343428571434" height="140.60052000000002" fill="none" stroke="none" visibility="hidden"></rect></g></svg></g></svg>